<?xml version="1.0" encoding="utf-8"?>
<svg width="128" height="128" viewBox="0 0 128 128" fill="none" xmlns="http://www.w3.org/2000/svg">
  <defs>
    <clipPath id="clip_path_1">
      <rect width="128" height="128" />
    </clipPath>
  </defs>
  <g clip-path="url(#clip_path_1)">
    <rect width="128" height="128" />
    <path id="Shape" d="M54.56 17.174L53.6705 17.631L54.0315 18.334L54.799 18.145L54.56 17.174L54.56 17.174ZM51 15L51 14L50.9975 14L51 15L51 15ZM50.9795 15L49.983 14.918L49.8935 16.003L50.982 16L50.9795 15L50.9795 15ZM42.784 8.9225L41.8055 9.129L42.051 10.29L43.1535 9.8515L42.784 8.9225L42.784 8.9225ZM23.0125 10.5L23.011 11.5L23.964 11.501L24.011 10.549L23.0125 10.5L23.0125 10.5ZM23 10.5L23.001 9.5L23 9.5L23 10.5L23 10.5ZM18.0545 13.102L17.547 13.9635L18.3495 14.4365L18.878 13.669L18.0545 13.102L18.0545 13.102ZM6.5755 17.015L6.6455 18.0125L7.2695 17.9685L7.5035 17.3885L6.5755 17.015L6.5755 17.015ZM7 28C4.2385 28 2 25.7615 2 23C2 23 0 23 0 23C0 26.866 3.134 30 7 30C7 30 7 28 7 28C7 28 7 28 7 28ZM56 28L7 28L7 30L56 30L56 28L56 28ZM61 23C61 25.7615 58.7615 28 56 28C56 28 56 30 56 30C59.866 30 63 26.866 63 23C63 23 61 23 61 23C61 23 61 23 61 23ZM56 18C58.7615 18 61 20.2385 61 23C61 23 63 23 63 23C63 19.134 59.866 16 56 16C56 16 56 18 56 18C56 18 56 18 56 18ZM54.799 18.145C55.1825 18.05 55.585 18 56 18C56 18 56 16 56 16C55.4225 16 54.8595 16.07 54.3205 16.203C54.3205 16.203 54.799 18.145 54.799 18.145C54.799 18.145 54.799 18.145 54.799 18.145ZM51 16C52.1257 15.9996 53.1568 16.6294 53.6705 17.631C53.6705 17.631 55.449 16.717 55.449 16.717C54.5929 15.0486 52.8752 13.9996 51 14C51 14 51 16 51 16C51 16 51 16 51 16ZM50.982 16L51.0025 16L50.9975 14L50.977 14L50.982 16L50.982 16ZM50 14.5C50 14.641 49.994 14.78 49.983 14.918C49.983 14.918 51.976 15.0825 51.976 15.0825C51.992 14.89 52 14.696 52 14.5C52 14.5 50 14.5 50 14.5C50 14.5 50 14.5 50 14.5ZM45 9.5C47.7615 9.5 50 11.7385 50 14.5C50 14.5 52 14.5 52 14.5C52 10.634 48.866 7.5 45 7.5C45 7.5 45 9.5 45 9.5C45 9.5 45 9.5 45 9.5ZM43.1535 9.852C43.7411 9.61862 44.3677 9.49916 45 9.5C45 9.5 45 7.5 45 7.5C44.0885 7.5 43.2155 7.675 42.4145 7.9935C42.4145 7.9935 43.1535 9.8515 43.1535 9.8515C43.1535 9.8515 43.1535 9.852 43.1535 9.852ZM33 2C37.3285 2 40.945 5.0565 41.8055 9.129C41.8055 9.129 43.7625 8.716 43.7625 8.716C42.7105 3.737 38.293 0 33 0C33 0 33 2 33 2C33 2 33 2 33 2ZM24.011 10.549C24.2455 5.7885 28.1805 2 33 2C33 2 33 0 33 0C27.109 0 22.3 4.63 22.0135 10.451C22.0135 10.451 24.011 10.549 24.011 10.549C24.011 10.549 24.011 10.549 24.011 10.549ZM22.999 11.5L23.011 11.5L23.0135 9.5L23.001 9.5L22.999 11.5L22.999 11.5ZM18.878 13.669C19.81 12.3102 21.3523 11.4987 23 11.5C23 11.5 23 9.5 23 9.5C20.605 9.5 18.491 10.704 17.2305 12.535C17.2305 12.535 18.878 13.669 18.878 13.669C18.878 13.669 18.878 13.669 18.878 13.669ZM14 13C15.2965 13 16.5075 13.3515 17.547 13.9635C17.547 13.9635 18.562 12.2405 18.562 12.2405C17.1797 11.4262 15.6043 10.9978 14 11C14 11 14 13 14 13C14 13 14 13 14 13ZM7.5035 17.388C8.539 14.814 11.0585 13 14 13C14 13 14 11 14 11C10.215 11 6.978 13.336 5.648 16.6415C5.648 16.6415 7.503 17.388 7.503 17.388C7.503 17.388 7.5035 17.388 7.5035 17.388ZM2 23C2 20.358 4.05 18.1935 6.645 18.0125C6.645 18.0125 6.506 16.0175 6.506 16.0175C2.87 16.271 0 19.3 0 23C0 23 2 23 2 23C2 23 2 23 2 23Z" fill="#00B0FF" fill-opacity="0.396" transform="translate(32.5 -8.5)" />
    <path id="Shape" d="M54.56 17.174L53.6705 17.631L54.0315 18.334L54.799 18.145L54.56 17.174L54.56 17.174ZM51 15L51 14L50.9975 14L51 15L51 15ZM50.9795 15L49.983 14.918L49.8935 16.003L50.982 16L50.9795 15L50.9795 15ZM42.784 8.9225L41.8055 9.1295L42.051 10.29L43.1535 9.85201L42.784 8.9225L42.784 8.9225ZM23.0125 10.5L23.011 11.5L23.964 11.501L24.011 10.549L23.0125 10.5L23.0125 10.5ZM23 10.5L23.001 9.5L23 9.5L23 10.5L23 10.5ZM18.0545 13.102L17.547 13.9635L18.3495 14.4365L18.878 13.669L18.0545 13.102L18.0545 13.102ZM6.5755 17.015L6.6455 18.0125L7.2695 17.9685L7.5035 17.388L6.5755 17.015L6.5755 17.015ZM7 28C4.2385 28 2 25.7615 2 23C2 23 0 23 0 23C0 26.866 3.134 30 7 30C7 30 7 28 7 28C7 28 7 28 7 28ZM56 28L7 28L7 30L56 30L56 28L56 28ZM61 23C61 25.7615 58.7615 28 56 28C56 28 56 30 56 30C59.866 30 63 26.866 63 23C63 23 61 23 61 23C61 23 61 23 61 23ZM56 18C58.7615 18 61 20.2385 61 23C61 23 63 23 63 23C63 19.134 59.866 16 56 16C56 16 56 18 56 18C56 18 56 18 56 18ZM54.799 18.145C55.1825 18.0505 55.585 18 56 18C56 18 56 16 56 16C55.4225 16 54.8595 16.07 54.3205 16.203C54.3205 16.203 54.799 18.145 54.799 18.145C54.799 18.145 54.799 18.145 54.799 18.145ZM51 16C52.1257 15.9996 53.1568 16.6294 53.6705 17.631C53.6705 17.631 55.449 16.717 55.449 16.717C54.593 15.0486 52.8752 13.9995 51 14C51 14 51 16 51 16C51 16 51 16 51 16ZM50.982 16L51.0025 16L50.9975 14L50.977 14L50.982 16L50.982 16ZM50 14.5C50 14.641 49.994 14.7805 49.983 14.918C49.983 14.918 51.976 15.0825 51.976 15.0825C51.992 14.89 52 14.696 52 14.5C52 14.5 50 14.5 50 14.5C50 14.5 50 14.5 50 14.5ZM45 9.5C47.7615 9.5 50 11.7385 50 14.5C50 14.5 52 14.5 52 14.5C52 10.634 48.866 7.5 45 7.5C45 7.5 45 9.5 45 9.5C45 9.5 45 9.5 45 9.5ZM43.1535 9.85201C43.7411 9.61844 44.3677 9.49898 45 9.49998C45 9.49998 45 7.49998 45 7.49998C44.1147 7.4989 43.2372 7.66638 42.4145 7.99348C42.4145 7.99348 43.1535 9.85199 43.1535 9.85199C43.1535 9.85199 43.1535 9.85201 43.1535 9.85201ZM33 2C37.3285 2 40.945 5.0565 41.8055 9.1295C41.8055 9.1295 43.7625 8.716 43.7625 8.716C42.7105 3.737 38.293 0 33 0C33 0 33 2 33 2C33 2 33 2 33 2ZM24.011 10.549C24.2455 5.7885 28.1805 2 33 2C33 2 33 0 33 0C27.109 0 22.3 4.6305 22.0135 10.451C22.0135 10.451 24.011 10.549 24.011 10.549C24.011 10.549 24.011 10.549 24.011 10.549ZM22.999 11.5L23.011 11.5L23.0135 9.5L23.001 9.5L22.999 11.5L22.999 11.5ZM18.878 13.669C19.8101 12.3103 21.3523 11.4987 23 11.5C23 11.5 23 9.5 23 9.5C20.605 9.5 18.491 10.704 17.2305 12.535C17.2305 12.535 18.878 13.669 18.878 13.669C18.878 13.669 18.878 13.669 18.878 13.669ZM14 13C15.2965 13 16.5075 13.3515 17.547 13.9635C17.547 13.9635 18.562 12.2405 18.562 12.2405C17.1798 11.4262 15.6043 10.9978 14 11C14 11 14 13 14 13C14 13 14 13 14 13ZM7.5035 17.388C8.539 14.814 11.0585 13 14 13C14 13 14 11 14 11C10.215 11 6.978 13.336 5.648 16.6415C5.648 16.6415 7.503 17.388 7.503 17.388C7.503 17.388 7.5035 17.388 7.5035 17.388ZM2 23C2 20.358 4.05 18.1935 6.645 18.0125C6.645 18.0125 6.506 16.017 6.506 16.017C2.87 16.2715 0 19.3 0 23C0 23 2 23 2 23C2 23 2 23 2 23Z" fill="#00B0FF" fill-opacity="0.396" transform="translate(32.5 119.5)" />
    <path id="Shape" d="M54.9985 19.1265L53.999 19.1055L53.9715 20.424L55.2485 20.0945L54.9985 19.1265L54.9985 19.1265ZM47.979 13.0865L46.984 13.1885L47.0935 14.253L48.148 14.072L47.979 13.0865L47.979 13.0865ZM41.291 10.557L40.505 11.1755L41.173 12.025L41.9685 11.2925L41.291 10.557L41.291 10.557ZM31.6165 8.2485L30.655 8.52299L30.9775 9.65099L32.04 9.1545L31.6165 8.2485L31.6165 8.2485ZM12.028 10.245L12.274 11.214L12.9715 11.0375L13.0255 10.3195L12.028 10.245L12.028 10.245ZM6.57549 15.015L6.64549 16.0125L7.26949 15.9685L7.50299 15.388L6.57549 15.015L6.57549 15.015ZM7 26C4.2385 26 2 23.7615 2 21C2 21 0 21 0 21C0 24.866 3.134 28 7 28C7 28 7 26 7 26C7 26 7 26 7 26ZM56 26L7 26L7 28L56 28L56 26L56 26ZM59 23C59 24.6569 57.6569 26 56 26C56 26 56 28 56 28C58.7615 28 61 25.7615 61 23C61 23 59 23 59 23C59 23 59 23 59 23ZM56 20C57.6569 20 59 21.3431 59 23C59 23 61 23 61 23C61 20.2385 58.7615 18 56 18C56 18 56 20 56 20C56 20 56 20 56 20ZM55.2485 20.0945C55.494 20.0315 55.7465 19.9997 56 20C56 20 56 18 56 18C55.5695 18 55.15 18.0545 54.749 18.158C54.749 18.158 55.2485 20.0945 55.2485 20.0945C55.2485 20.0945 55.2485 20.0945 55.2485 20.0945ZM54 19L53.999 19.1055L55.9985 19.147L56 19L54 19L54 19ZM49 14C51.7615 14 54 16.2385 54 19C54 19 56 19 56 19C56 15.134 52.866 12 49 12C49 12 49 14 49 14C49 14 49 14 49 14ZM48.148 14.072C48.4295 14.0241 48.7145 14 49 14C49 14 49 12 49 12C48.595 12 48.1975 12.0345 47.81 12.101C47.81 12.101 48.148 14.072 48.148 14.072C48.148 14.072 48.148 14.072 48.148 14.072ZM44 10.5C45.5363 10.4999 46.8245 11.6605 46.984 13.1885C46.984 13.1885 48.9735 12.9845 48.9735 12.9845C48.715 10.4645 46.5875 8.50001 44 8.50001C44 8.50001 44 10.5 44 10.5C44 10.5 44 10.5 44 10.5ZM41.9685 11.2925C42.5214 10.7815 43.2471 10.4984 44 10.5C44 10.5 44 8.5 44 8.5C42.7451 8.49854 41.5358 8.97044 40.6135 9.8215C40.6135 9.8215 41.9685 11.2925 41.9685 11.2925C41.9685 11.2925 41.9685 11.2925 41.9685 11.2925ZM35 8.5C37.233 8.5 39.2215 9.5445 40.505 11.1755C40.505 11.1755 42.0765 9.939 42.0765 9.939C40.3716 7.76592 37.762 6.49773 35 6.5C35 6.5 35 8.5 35 8.5C35 8.5 35 8.5 35 8.5ZM32.04 9.1545C32.9667 8.72187 33.9773 8.49843 35 8.5C35 8.5 35 6.5 35 6.5C33.6415 6.5 32.3505 6.8015 31.1935 7.3425C31.1935 7.3425 32.04 9.1545 32.04 9.1545C32.04 9.1545 32.04 9.1545 32.04 9.1545ZM22 2C26.1105 2 29.5795 4.756 30.655 8.523C30.655 8.523 32.5785 7.974 32.5785 7.974C31.264 3.371 27.027 0 22 0C22 0 22 2 22 2C22 2 22 2 22 2ZM13.0255 10.3195C13.3725 5.667 17.2585 2 22 2C22 2 22 0 22 0C16.204 0 11.4555 4.4825 11.031 10.1705C11.031 10.1705 13.0255 10.3195 13.0255 10.3195C13.0255 10.3195 13.0255 10.3195 13.0255 10.3195ZM7.503 15.388C8.33863 13.3168 10.1101 11.767 12.274 11.214C12.274 11.214 11.7825 9.27551 11.7825 9.27551C8.99989 9.98534 6.72176 11.9781 5.648 14.6415C5.648 14.6415 7.503 15.388 7.503 15.388C7.503 15.388 7.503 15.388 7.503 15.388ZM2 21C2 18.358 4.05 16.1935 6.6455 16.0125C6.6455 16.0125 6.506 14.017 6.506 14.017C2.87 14.2715 0 17.3 0 21C0 21 2 21 2 21C2 21 2 21 2 21Z" fill="#00B0FF" fill-opacity="0.396" transform="translate(47 59.5)" />
    <path id="Shape" d="M31.5 24.9845L31.5615 23.9865L30.5 23.921L30.5 24.9845L31.5 24.9845L31.5 24.9845ZM31.945 9L30.951 9.11L31.05 10.006L31.952 10L31.945 9.00001L31.945 9ZM14.222 8.004L14.186 9.00349L15.0145 9.03349L15.1975 8.22499L14.2225 8.00399L14.222 8.004ZM8.068 13.0945L7.891 14.079L8.903 14.2605L9.0565 13.2445L8.068 13.0945L8.068 13.0945ZM31.5 25L31.5 26L32.5 26L32.5 25L31.5 25L31.5 25ZM32 24C31.8525 24 31.7065 23.9955 31.5615 23.9865C31.5615 23.9865 31.4385 25.9825 31.4385 25.9825C31.6245 25.994 31.8115 26 32 26C32 26 32 24 32 24C32 24 32 24 32 24ZM39 17C39 20.866 35.866 24 32 24C32 24 32 26 32 26C36.9705 26 41 21.9705 41 17C41 17 39 17 39 17C39 17 39 17 39 17ZM32 10C35.866 10 39 13.134 39 17C39 17 41 17 41 17C41 12.0295 36.9705 8 32 8C32 8 32 10 32 10C32 10 32 10 32 10ZM31.952 10L32 10L32 8L31.9385 8L31.952 10L31.952 10ZM23 2C27.117 2 30.509 5.111 30.951 9.11C30.951 9.11 32.939 8.8905 32.939 8.8905C32.3865 3.889 28.148 0 23 0C23 0 23 2 23 2C23 2 23 2 23 2ZM15.1975 8.225C16.0045 4.6605 19.1925 2 23 2C23 2 23 0 23 0C18.238 0 14.2555 3.3275 13.247 7.783C13.247 7.783 15.197 8.225 15.197 8.225C15.197 8.225 15.1975 8.225 15.1975 8.225ZM14 9C14.0625 9 14.124 9.001 14.186 9.0035C14.186 9.0035 14.2585 7.0045 14.2585 7.0045C14.1724 7.0015 14.0862 6.99999 14 7C14 7 14 9 14 9C14 9 14 9 14 9ZM9.0565 13.2445C9.42 10.842 11.496 9 14 9C14 9 14 7 14 7C10.492 7 7.5885 9.5795 7.079 12.945C7.079 12.945 9.0565 13.2445 9.0565 13.2445C9.0565 13.2445 9.0565 13.2445 9.0565 13.2445ZM7 14C7.305 14 7.6025 14.027 7.891 14.079C7.891 14.079 8.2445 12.1105 8.2445 12.1105C7.83375 12.0369 7.41729 11.9999 7 12C7 12 7 14 7 14C7 14 7 14 7 14ZM2 19C2 16.2385 4.2385 14 7 14C7 14 7 12 7 12C3.134 12 0 15.134 0 19C0 19 2 19 2 19C2 19 2 19 2 19ZM7 24C4.2385 24 2 21.7615 2 19C2 19 0 19 0 19C0 22.866 3.134 26 7 26C7 26 7 24 7 24C7 24 7 24 7 24ZM31.5 24L7 24L7 26L31.5 26L31.5 24L31.5 24ZM30.5 24.9845L30.5 25L32.5 25L32.5 24.9845L30.5 24.9845L30.5 24.9845Z" fill="#00B0FF" fill-opacity="0.396" transform="translate(-3.5 83.5)" />
    <path id="Shape" d="M31.5 24.9845L31.5615 23.9865L30.5 23.921L30.5 24.9845L31.5 24.9845L31.5 24.9845ZM31.945 9L30.951 9.11L31.05 10.006L31.952 10L31.945 9.00001L31.945 9ZM14.222 8.004L14.1855 9.00349L15.0145 9.03349L15.1975 8.22499L14.222 8.00399L14.222 8.004ZM8.06801 13.0945L7.89101 14.079L8.903 14.2605L9.0565 13.2445L8.06801 13.0945L8.06801 13.0945ZM31.5 25L31.5 26L32.5 26L32.5 25L31.5 25L31.5 25ZM32 24C31.8525 24 31.7065 23.9955 31.5615 23.9865C31.5615 23.9865 31.4385 25.9825 31.4385 25.9825C31.6245 25.994 31.8115 26 32 26C32 26 32 24 32 24C32 24 32 24 32 24ZM39 17C39 20.866 35.866 24 32 24C32 24 32 26 32 26C36.9705 26 41 21.9705 41 17C41 17 39 17 39 17C39 17 39 17 39 17ZM32 10C35.866 10 39 13.134 39 17C39 17 41 17 41 17C41 12.0295 36.9705 8 32 8C32 8 32 10 32 10C32 10 32 10 32 10ZM31.952 10L32 10L32 8L31.9385 8L31.952 10L31.952 10ZM23 2C27.117 2 30.509 5.111 30.951 9.11C30.951 9.11 32.939 8.8905 32.939 8.8905C32.3865 3.889 28.148 0 23 0C23 0 23 2 23 2C23 2 23 2 23 2ZM15.1975 8.225C16.0045 4.6605 19.1925 2 23 2C23 2 23 0 23 0C18.238 0 14.2555 3.3275 13.247 7.783C13.247 7.783 15.1975 8.225 15.1975 8.225C15.1975 8.225 15.1975 8.225 15.1975 8.225ZM14 9C14.062 9 14.124 9.001 14.1855 9.0035C14.1855 9.0035 14.2585 7.0045 14.2585 7.0045C14.1724 7.0015 14.0862 6.99999 14 7C14 7 14 9 14 9C14 9 14 9 14 9ZM9.0565 13.2445C9.42 10.842 11.496 9 14 9C14 9 14 7 14 7C10.492 7 7.5885 9.5795 7.07899 12.945C7.07899 12.945 9.05649 13.2445 9.05649 13.2445C9.05649 13.2445 9.0565 13.2445 9.0565 13.2445ZM7 14C7.30499 14 7.60249 14.027 7.89101 14.079C7.89101 14.079 8.24451 12.1105 8.24451 12.1105C7.83376 12.0369 7.41728 11.9999 6.99998 12C6.99998 12 6.99998 14 6.99998 14C6.99998 14 7 14 7 14ZM2 19C2 16.2385 4.23849 14 7 14C7 14 7 12 7 12C3.134 12 0 15.134 0 19C0 19 2 19 2 19C2 19 2 19 2 19ZM7 24C4.23849 24 2 21.7615 2 19C2 19 0 19 0 19C0 22.866 3.134 26 7 26C7 26 7 24 7 24C7 24 7 24 7 24ZM31.5 24L7 24L7 26L31.5 26L31.5 24L31.5 24ZM30.5 24.9845L30.5 25L32.5 25L32.5 24.9845L30.5 24.9845L30.5 24.9845Z" fill="#00B0FF" fill-opacity="0.396" transform="translate(124.5 83.5)" />
    <path id="Shape" d="M20.9295 6.027L20.001 6.3985L20.279 7.0925L21.023 7.0225L20.9295 6.027L20.9295 6.027ZM5.56699 10.04L5.42649 11.03L6.72799 11.215L6.55849 9.911L5.56699 10.04L5.56699 10.04ZM5 17C3.34315 17 2 15.6569 2 14C2 14 0 14 0 14C0 16.7615 2.2385 19 5 19C5 19 5 17 5 17C5 17 5 17 5 17ZM21.5 17L5 17L5 19L21.5 19L21.5 17L21.5 17ZM26.5 12C26.5 14.7615 24.2615 17 21.5 17C21.5 17 21.5 19 21.5 19C25.366 19 28.5 15.866 28.5 12C28.5 12 26.5 12 26.5 12C26.5 12 26.5 12 26.5 12ZM21.5 7C24.2615 7 26.5 9.2385 26.5 12C26.5 12 28.5 12 28.5 12C28.5 8.134 25.366 5 21.5 5C21.5 5 21.5 7 21.5 7C21.5 7 21.5 7 21.5 7ZM21.023 7.0225C21.18 7.0075 21.339 7 21.5 7C21.5 7 21.5 5 21.5 5C21.276 5 21.0545 5.0105 20.8355 5.031C20.8355 5.031 21.023 7.0225 21.023 7.0225C21.023 7.0225 21.023 7.0225 21.023 7.0225ZM13.5 2C16.445 2 18.9675 3.819 20.001 6.3985C20.001 6.3985 21.8575 5.655 21.8575 5.655C20.5305 2.3425 17.29 0 13.5 0C13.5 0 13.5 2 13.5 2C13.5 2 13.5 2 13.5 2ZM6.5 9C6.5 5.134 9.634 2 13.5 2C13.5 2 13.5 0 13.5 0C8.5295 0 4.5 4.0295 4.5 9C4.5 9 6.5 9 6.5 9C6.5 9 6.5 9 6.5 9ZM6.5585 9.911C6.51949 9.6089 6.49995 9.3046 6.5 9C6.5 9 4.5 9 4.5 9C4.5 9.3955 4.5255 9.7855 4.5755 10.1685C4.5755 10.1685 6.5585 9.911 6.5585 9.911C6.5585 9.911 6.5585 9.911 6.5585 9.911ZM5 11C5.1455 11 5.2875 11.01 5.4265 11.03C5.4265 11.03 5.7075 9.05 5.7075 9.05C5.476 9.017 5.23949 9 5 9C5 9 5 11 5 11C5 11 5 11 5 11ZM2 14C2 12.3431 3.34315 11 5 11C5 11 5 9 5 9C2.2385 9 0 11.2385 0 14C0 14 2 14 2 14C2 14 2 14 2 14Z" fill="#00B0FF" fill-opacity="0.396" transform="translate(89.5 32.5)" />
    <path id="Shape" d="M26.8105 10.22L25.858 9.915L25.561 10.845L26.483 11.1645L26.8105 10.2195L26.8105 10.22ZM20.778 5.673L19.8685 6.0895L20.3575 7.1575L21.334 6.504L20.778 5.673L20.778 5.673ZM5.567 10.0395L5.4265 11.0295L6.728 11.2145L6.5585 9.9105L5.567 10.0395L5.567 10.0395ZM5 17C3.34315 17 2 15.6569 2 14C2 14 0 14 0 14C0 16.7615 2.2385 19 5 19C5 19 5 17 5 17C5 17 5 17 5 17ZM25.5 17L5 17L5 19L25.5 19L25.5 17L25.5 17ZM28.5 14C28.5 15.6569 27.1569 17 25.5 17C25.5 17 25.5 19 25.5 19C28.2615 19 30.5 16.7615 30.5 14C30.5 14 28.5 14 28.5 14C28.5 14 28.5 14 28.5 14ZM26.483 11.1645C27.6905 11.5838 28.5 12.7218 28.5 14C28.5 14 30.5 14 30.5 14C30.5 11.811 29.0935 9.9525 27.138 9.275C27.138 9.275 26.483 11.1645 26.483 11.1645C26.483 11.1645 26.483 11.1645 26.483 11.1645ZM26 9C26 9.3205 25.95 9.628 25.858 9.915C25.858 9.915 27.763 10.5245 27.763 10.5245C27.9204 10.0317 28.0004 9.51737 28 9C28 9 26 9 26 9C26 9 26 9 26 9ZM23 6C24.6569 6 26 7.34315 26 9C26 9 28 9 28 9C28 6.2385 25.7615 4 23 4C23 4 23 6 23 6C23 6 23 6 23 6ZM21.334 6.505C21.8267 6.17465 22.4068 5.99882 23 6C23 6 23 4 23 4C21.9735 4 21.0165 4.31 20.2215 4.8425C20.2215 4.8425 21.334 6.5045 21.334 6.5045C21.334 6.5045 21.334 6.505 21.334 6.505ZM13.5 2C16.326 2 18.763 3.675 19.8685 6.09C19.8685 6.09 21.687 5.2575 21.687 5.2575C20.2675 2.1575 17.137 0 13.5 0C13.5 0 13.5 2 13.5 2C13.5 2 13.5 2 13.5 2ZM6.5 9C6.5 5.134 9.634 2 13.5 2C13.5 2 13.5 0 13.5 0C8.5295 0 4.5 4.0295 4.5 9C4.5 9 6.5 9 6.5 9C6.5 9 6.5 9 6.5 9ZM6.5585 9.911C6.51941 9.60891 6.49987 9.30461 6.5 9C6.5 9 4.5 9 4.5 9C4.5 9.3955 4.5255 9.7855 4.575 10.1685C4.575 10.1685 6.5585 9.911 6.5585 9.911C6.5585 9.911 6.5585 9.911 6.5585 9.911ZM5 11C5.145 11 5.2875 11.01 5.4265 11.03C5.4265 11.03 5.7075 9.05 5.7075 9.05C5.476 9.017 5.2395 9 5 9C5 9 5 11 5 11C5 11 5 11 5 11ZM2 14C2 12.3431 3.34315 11 5 11C5 11 5 9 5 9C2.2385 9 0 11.2385 0 14C0 14 2 14 2 14C2 14 2 14 2 14Z" fill="#00B0FF" fill-opacity="0.396" transform="translate(-16.5 2.5)" />
    <path id="Shape" d="M26.8105 10.22L25.858 9.915L25.561 10.845L26.483 11.1645L26.8105 10.2195L26.8105 10.22ZM20.778 5.6735L19.8685 6.09L20.3575 7.158L21.334 6.5045L20.778 5.6735L20.778 5.6735ZM5.567 10.04L5.4265 11.03L6.728 11.215L6.55849 9.911L5.56699 10.04L5.567 10.04ZM5 17C3.34315 17 2 15.6569 2 14C2 14 0 14 0 14C0 16.7615 2.2385 19 5 19C5 19 5 17 5 17C5 17 5 17 5 17ZM25.5 17L5 17L5 19L25.5 19L25.5 17L25.5 17ZM28.5 14C28.5 15.6569 27.1569 17 25.5 17C25.5 17 25.5 19 25.5 19C28.2615 19 30.5 16.7615 30.5 14C30.5 14 28.5 14 28.5 14C28.5 14 28.5 14 28.5 14ZM26.483 11.1645C27.6905 11.5838 28.5 12.7218 28.5 14C28.5 14 30.5 14 30.5 14C30.5 11.811 29.0935 9.9525 27.138 9.275C27.138 9.275 26.483 11.1645 26.483 11.1645C26.483 11.1645 26.483 11.1645 26.483 11.1645ZM26 9C26 9.3205 25.95 9.628 25.858 9.915C25.858 9.915 27.763 10.5245 27.763 10.5245C27.9204 10.0317 28.0004 9.51737 28 9C28 9 26 9 26 9C26 9 26 9 26 9ZM23 6C24.6569 6 26 7.34315 26 9C26 9 28 9 28 9C28 6.2385 25.7615 4 23 4C23 4 23 6 23 6C23 6 23 6 23 6ZM21.334 6.505C21.8267 6.17468 22.4068 5.99885 23 6C23 6 23 4 23 4C21.9735 4 21.0165 4.31 20.2215 4.8425C20.2215 4.8425 21.334 6.5045 21.334 6.5045C21.334 6.5045 21.334 6.505 21.334 6.505ZM13.5 2C16.326 2 18.763 3.675 19.8685 6.09C19.8685 6.09 21.687 5.2575 21.687 5.2575C20.2675 2.1575 17.137 0 13.5 0C13.5 0 13.5 2 13.5 2C13.5 2 13.5 2 13.5 2ZM6.5 9C6.5 5.134 9.634 2 13.5 2C13.5 2 13.5 0 13.5 0C8.5295 0 4.5 4.0295 4.5 9C4.5 9 6.5 9 6.5 9C6.5 9 6.5 9 6.5 9ZM6.5585 9.911C6.51949 9.6089 6.49995 9.30461 6.5 9C6.5 9 4.5 9 4.5 9C4.5 9.3955 4.5255 9.7855 4.5755 10.1685C4.5755 10.1685 6.5585 9.911 6.5585 9.911C6.5585 9.911 6.5585 9.911 6.5585 9.911ZM5 11C5.1455 11 5.2875 11.01 5.4265 11.03C5.4265 11.03 5.7075 9.05 5.7075 9.05C5.476 9.017 5.23949 9 5 9C5 9 5 11 5 11C5 11 5 11 5 11ZM2 14C2 12.3431 3.34315 11 5 11C5 11 5 9 5 9C2.2385 9 0 11.2385 0 14C0 14 2 14 2 14C2 14 2 14 2 14Z" fill="#00B0FF" fill-opacity="0.396" transform="translate(111.5 2.5)" />
    <path id="Shape" d="M17.5 7L16.5 7L16.5 8L17.5 8L17.5 7L17.5 7ZM5.5 7L4.5 7L4.5 7.0025L5.5 7L5.5 7ZM5.5 7.031L5.3765 8.0235L6.50301 8.164L6.50001 7.0285L5.50001 7.03101L5.5 7.031ZM17.5 8C19.1569 8 20.5 9.34315 20.5 11C20.5 11 22.5 11 22.5 11C22.5 8.2385 20.2615 6 17.5 6C17.5 6 17.5 8 17.5 8C17.5 8 17.5 8 17.5 8ZM11.5 2C14.2615 2 16.5 4.2385 16.5 7C16.5 7 18.5 7 18.5 7C18.5 3.134 15.366 0 11.5 0C11.5 0 11.5 2 11.5 2C11.5 2 11.5 2 11.5 2ZM6.5 7C6.5 4.2385 8.7385 2 11.5 2C11.5 2 11.5 0 11.5 0C7.634 0 4.5 3.134 4.5 7C4.5 7 6.5 7 6.5 7C6.5 7 6.5 7 6.5 7ZM6.5 7.0285L6.5 6.99751L4.5 7.0025L4.5 7.0335L6.5 7.0285L6.5 7.0285ZM5 8C5.128 8 5.2535 8.008 5.3765 8.0235C5.3765 8.0235 5.624 6.0385 5.624 6.0385C5.41699 6.01279 5.2086 5.99994 4.99999 6C4.99999 6 4.99999 8 4.99999 8C4.99999 8 5 8 5 8ZM2 11C2 9.34315 3.34315 8 5 8C5 8 5 6 5 6C2.2385 6 0 8.2385 0 11C0 11 2 11 2 11C2 11 2 11 2 11ZM5 14C3.34315 14 2 12.6569 2 11C2 11 0 11 0 11C0 13.7615 2.2385 16 5 16C5 16 5 14 5 14C5 14 5 14 5 14ZM17.5 14L5 14L5 16L17.5 16L17.5 14L17.5 14ZM20.5 11C20.5 12.6569 19.1569 14 17.5 14C17.5 14 17.5 16 17.5 16C20.2615 16 22.5 13.7615 22.5 11C22.5 11 20.5 11 20.5 11C20.5 11 20.5 11 20.5 11Z" fill="#00B0FF" fill-opacity="0.396" transform="translate(88 100.5)" />
    <path id="Shape" d="M28.5 9.0205L27.5 9.0195L27.499 9.9415L28.4175 10.017L28.5 9.0205L28.5 9.0205ZM28.5 9L29.5 9.0015L29.5 9L28.5 9L28.5 9ZM33.744 13.261L32.787 13.5505L33.077 14.5105L34.0365 14.2175L33.744 13.261L33.744 13.261ZM8.538 9.013L8.595 10.0115L9.1975 9.977L9.4475 9.428L8.538 9.013L8.538 9.013ZM13.284 5.5425L13.402 6.5355L13.9475 6.4705L14.1855 5.9755L13.284 5.5425L13.284 5.5425ZM29.5 9.022L29.5 9.0015L27.5 8.9985L27.5 9.019L29.5 9.022L29.5 9.022ZM34.7015 12.972C33.8855 10.274 31.487 8.2635 28.582 8.024C28.582 8.024 28.4175 10.017 28.4175 10.017C30.488 10.188 32.204 11.623 32.787 13.5505C32.787 13.5505 34.7015 12.9715 34.7015 12.9715C34.7015 12.9715 34.7015 12.972 34.7015 12.972ZM35.5 12C34.806 11.9996 34.1158 12.1024 33.452 12.305C33.452 12.305 34.0365 14.2175 34.0365 14.2175C34.5108 14.0728 35.0041 13.9995 35.5 14C35.5 14 35.5 12 35.5 12C35.5 12 35.5 12 35.5 12ZM42.5 19C42.5 15.134 39.366 12 35.5 12C35.5 12 35.5 14 35.5 14C38.2615 14 40.5 16.2385 40.5 19C40.5 19 42.5 19 42.5 19C42.5 19 42.5 19 42.5 19ZM35.5 26C39.366 26 42.5 22.866 42.5 19C42.5 19 40.5 19 40.5 19C40.5 21.7615 38.2615 24 35.5 24C35.5 24 35.5 26 35.5 26C35.5 26 35.5 26 35.5 26ZM35.5 24L9 24L9 26L35.5 26L35.5 24L35.5 24ZM0 17C0 21.9705 4.0295 26 9 26C9 26 9 24 9 24C5.134 24 2 20.866 2 17C2 17 0 17 0 17C0 17 0 17 0 17ZM8.481 8.015C3.7515 8.2835 0 12.203 0 17C0 17 2 17 2 17C2 13.27 4.918 10.221 8.595 10.0115C8.595 10.0115 8.481 8.015 8.481 8.015C8.481 8.015 8.481 8.015 8.481 8.015ZM13.166 4.5495C10.6935 4.8435 8.62 6.4235 7.628 8.598C7.628 8.598 9.448 9.428 9.448 9.428C10.1718 7.8406 11.67 6.74463 13.402 6.5355C13.402 6.5355 13.1655 4.5495 13.1655 4.5495C13.1655 4.5495 13.166 4.5495 13.166 4.5495ZM20.5 0C16.921 0 13.832 2.089 12.382 5.11C12.382 5.11 14.1855 5.975 14.1855 5.975C15.315 3.6215 17.719 2 20.5 2C20.5 2 20.5 0 20.5 0C20.5 0 20.5 0 20.5 0ZM29.5 9C29.5 4.0295 25.4705 0 20.5 0C20.5 0 20.5 2 20.5 2C24.366 2 27.5 5.134 27.5 9C27.5 9 29.5 9 29.5 9C29.5 9 29.5 9 29.5 9Z" fill="#00B0FF" fill-opacity="0.396" transform="translate(5 29)" />
  </g>
</svg>